PathFileType	4	(X/Y/Z)	Patient4_TMGait_0pt5_01_left_33.trc.trc
DataRate	CameraRate	NumFrames	NumMarkers	Units	OrigDataRate	OrigDataStartFrame	OrigNumFrames
81.871345029240	81.871345029240	5	33	mm	81.871345029240	89	       141
Frame#	Time	L.ASIS			Sacral			L.Shoulder			Chest			R.Shoulder			Neck			R.ASIS			R.Thigh.Superior			R.Thigh.Lateral			R.Thigh.Inferior			R.Patella			L.Thigh.Superior			L.Thigh.Lateral			L.Thigh.Inferior			L.Patella			L.Shank.Superior			L.Shank.Lateral			L.Shank.Inferior			R.Shank.Superior			R.Shank.Lateral			R.Shank.Inferior			R.Heel			R.Midfoot.Superior			R.Midfoot.Lateral			R.Toe			L.Heel			L.Midfoot.Lateral			L.Midfoot.Superior			L.Toe			L.Elbow			L.Wrist			R.Elbow			R.Wrist			
		X1	Y1	Z1	X2	Y2	Z2	X3	Y3	Z3	X4	Y4	Z4	X5	Y5	Z5	X6	Y6	Z6	X7	Y7	Z7	X8	Y8	Z8	X9	Y9	Z9	X10	Y10	Z10	X11	Y11	Z11	X12	Y12	Z12	X13	Y13	Z13	X14	Y14	Z14	X15	Y15	Z15	X16	Y16	Z16	X17	Y17	Z17	X18	Y18	Z18	X19	Y19	Z19	X20	Y20	Z20	X21	Y21	Z21	X22	Y22	Z22	X23	Y23	Z23	X24	Y24	Z24	X25	Y25	Z25	X26	Y26	Z26	X27	Y27	Z27	X28	Y28	Z28	X29	Y29	Z29	X30	Y30	Z30	X31	Y31	Z31	X32	Y32	Z32	X33	Y33	Z33	

89	45.104857142857	856.855653246048	956.699027810208	366.448135899857	642.256773120665	1008.884599984937	519.340011588995	844.243250545578	1431.693034742195	351.491070202353	938.127003257722	1350.754693425022	513.882862097650	854.825134102555	1427.052668370470	688.155436742413	850.201872148022	1490.171672235501	503.048011503247	864.027959699994	934.793075470196	640.559194245691	921.074763311930	743.989432888869	613.227793037224	848.270263505223	632.582857962132	666.350863506353	932.324495141023	588.016295683437	587.420309011576	941.191622829128	499.353449407543	592.906213013616	918.168534091906	756.440246009767	398.187938349149	855.501930390640	634.125580182591	325.349989526021	947.347362817749	559.697057960759	389.197899134994	948.584208508987	470.575172249047	386.946788391580	881.358843464961	408.372854961500	377.142094651997	743.545910273492	365.435554122536	321.134160644287	726.685940607806	238.704628566143	378.043512666753	917.878033203527	408.986349966549	599.337958095371	850.955248628472	300.113650297009	655.961740016138	902.352669080640	209.402135664452	594.682748095219	776.914879873022	42.569073481316	555.684088010261	946.306491830584	98.309334565845	598.933037687433	857.483734292569	36.116775527190	634.307800200552	1065.336877081251	48.248126140144	630.652097169264	532.200769591279	167.356169475434	406.767283589807	594.803546605431	137.298152416816	322.878577187859	698.959836770688	145.362341565093	349.071526959131	782.288333837866	42.761961443712	307.383806797663	774.295159198006	1084.801802063092	232.182393411268	932.215082482576	874.852324373030	228.500010634773	772.224185381132	1087.078734678706	796.690307174663	822.658777830321	830.623177675170	803.980611972648	
90	45.117071428571	855.744289075722	957.579921924556	368.753587539409	641.450305737033	1009.995446697585	521.778431922612	843.223454491536	1432.370729645028	353.166317803113	937.728603461622	1351.414379478579	515.151795715362	855.403139384694	1428.022538339430	689.853477562727	849.843998269554	1490.972791197120	504.651391562233	863.240398190308	935.522793614505	642.749701922658	918.511625567530	743.590809236036	615.244049423865	844.522856045495	632.621171369058	667.971415363431	928.120095791121	587.501381746110	588.856449368533	936.063132430922	498.934209324457	594.045252777144	919.857955900819	759.953950783901	400.717546891480	860.116577360837	637.019884843758	326.750215270061	953.210119659742	564.129622144393	390.804631566008	956.161197080795	474.834193605788	388.154195439086	889.540740382692	411.742900713911	377.900471839359	752.001716175009	368.111177228547	321.721907199591	736.185657295589	240.913406156406	378.014523499162	912.553115938532	408.797756572713	600.318459569697	845.305277735030	300.015348334765	656.610776101815	896.542183411975	209.306822256303	595.123534256992	770.823512548613	42.577745527919	555.736280782630	940.243895918603	98.192016810708	599.084817011672	851.391551703647	36.088185845900	634.386384086641	1059.265709726109	48.100031773532	630.788401551794	542.361488979897	168.033366568746	406.451316211131	605.136155953316	138.876144975876	322.378554863573	709.200753060566	147.364287832904	348.650479947658	793.130035296432	44.998571185121	306.289855639569	771.382391505924	1085.805263166223	233.995257220267	927.191080133033	874.270149530592	229.559439931606	779.662662942439	1086.351289179352	799.421989365538	839.459232109928	831.794586046134	804.572739324163	
91	45.129285714286	854.603269257520	958.460063904761	371.006274903707	640.502916752533	1011.005699947002	524.054713018377	842.132219496262	1432.886874575731	354.736822802288	937.258040415857	1351.963292145241	516.349035357767	855.903890503573	1428.950662229945	691.385042722852	849.440478487181	1491.668327578322	506.113606368991	862.363076040125	936.111479020554	644.920300832688	916.016126691955	743.204534679585	617.139082298206	840.875854920311	632.621852313022	669.481391047966	924.075017526830	586.990484528118	590.235280208072	931.113129954850	498.507506421684	595.119778821728	921.189711782497	763.305948026072	403.170039911171	864.230723218284	639.962606085725	328.026946389608	958.300596207698	568.474549360120	392.383415463905	962.984143117547	479.196447658009	389.272774560396	897.377194923418	415.099099967705	378.479405738178	760.549641492939	369.786455228016	321.948375106021	746.629713926216	242.051671489641	377.651553485099	907.399584821478	408.592286430462	601.212007209439	839.792767734104	299.929539272189	657.213144965751	890.814082825752	209.192289080444	595.506153264288	764.696571837644	42.607916045615	555.767916997813	934.174625179248	98.057826237110	599.204162133742	845.269921657072	36.077635021119	634.445016174368	1053.184880067140	47.856720177825	630.912853581036	554.085208747993	166.134325776513	405.589000910964	617.334880391197	138.314748097894	321.447515738884	721.114582034803	148.207654314738	347.884812812015	806.551703428403	47.054805830747	305.113178299401	768.346948290954	1086.649752404167	235.741029902918	921.836996485999	873.427756025595	230.135331616240	787.381807563684	1085.725510340550	802.043480562578	856.543054255289	833.486187171003	805.023965643050	
92	45.141500000000	853.407522545128	959.343734961727	373.156341420364	639.432679171184	1011.906243305380	526.194341821380	840.964149592525	1433.265907690370	356.231039243805	936.710103474917	1352.409769955223	517.497694266706	856.323423444941	1429.819833643257	692.781320944871	848.996737103417	1492.261168014917	507.472135053745	861.426386698267	936.575165268638	647.020064520547	913.600087171168	742.828852982789	618.886877825771	837.367093755058	632.595700147916	670.875501578556	920.209010776366	586.487930543648	591.534974339855	926.374531107526	498.072009831857	596.120036032487	922.172052387313	766.470573217028	405.505428078643	867.854857256468	642.883269704941	329.177660256377	962.643720112914	572.649644216508	393.912019607735	969.056811161086	483.582076586197	390.280452105392	904.856169819090	418.381506934997	378.877185784829	769.176973510370	370.457303402383	321.841102434335	757.992416349659	242.153517211033	376.988053236651	902.440382569389	408.368418355128	602.015354775749	834.434922688897	299.856851665648	657.765570954866	885.177500930867	209.059022644550	595.829808556588	758.544900843151	42.654424164115	555.782202789315	928.102082655684	97.918200672106	599.292508982018	839.129388519424	36.084814740950	634.485487656748	1047.100672184593	47.540240882430	631.027650255422	567.352778296946	161.838549683134	404.251012900332	631.322803716792	135.750929514646	320.139146088622	734.639198565342	147.914108483245	346.817465511226	822.367359647206	48.845839748682	303.874106173397	765.238301920962	1087.345563641099	237.461489565641	916.148086355892	872.308029413310	230.285947737612	795.347983293391	1085.192448739170	804.534370061536	873.854339752494	835.696518893896	805.306103253426	
93	45.153714285714	852.134753804481	960.227009391844	375.158176160036	638.267380010640	1012.690125614477	528.225297729520	839.713523615513	1433.537507135345	357.674229531413	936.080689370090	1352.765746935180	518.612810553519	856.660188841933	1430.610259673086	694.078259427033	848.513455803015	1492.756881823777	508.764516829470	860.456035799314	936.931284674670	648.993804036528	911.258375976473	742.460876476550	620.460587887099	834.018199793443	632.552922480281	672.151707021082	916.522139024294	585.995347284660	592.734496350298	921.856698072396	497.625822779898	597.039704431275	922.817158728875	769.423635918054	407.680514199469	870.981650828436	645.711684384316	330.194070651455	966.253155430973	576.578302581819	395.358514970962	974.377799758159	487.916881268576	391.152638753924	911.953110990954	421.545160491952	379.090890280734	777.858410364365	370.167197051650	321.441938659802	770.217182141633	241.312324795824	376.067942809411	897.679079402267	408.124046829687	602.728329523650	829.235233838705	299.795160156711	658.266332619712	879.633559765325	208.907264620262	596.095901627054	752.381825596147	42.712850487499	555.781631739586	922.030492841474	97.781537939885	599.353367032909	832.981462529893	36.108118271172	634.510394258677	1041.019503089010	47.171935298098	631.135443765606	582.126352428101	155.420840209793	402.542102042226	646.987774369314	131.418285706471	318.532620218678	749.665075034742	146.584615495428	345.506117601778	840.317696560027	50.357049272540	302.587472377012	762.105358328041	1087.911656522285	239.179620615391	910.138352401942	870.921476979065	230.081895369691	803.518678058481	1084.739659808050	806.879552368804	891.334748667283	838.416241636164	805.395303621737	
